<svg viewBox="0 0 800 400" xmlns="http://www.w3.org/2000/svg">
  <defs>
    <style>
      .title { font: bold 16px sans-serif; text-anchor: middle; fill: #333; }
      .label { font: 12px sans-serif; text-anchor: middle; fill: #fff; }
      .desc { font: 10px sans-serif; text-anchor: middle; fill: #666; }
      .old { fill: #FF9800; stroke: #F57C00; stroke-width: 2; rx: 6; }
      .new { fill: #4CAF50; stroke: #2E7D32; stroke-width: 2; rx: 6; }
      .arrow { stroke: #333; stroke-width: 2; fill: none; marker-end: url(#arrowhead); }
    </style>
    <defs>
      <marker id="arrowhead" markerWidth="10" markerHeight="7" 
       refX="9" refY="3.5" orient="auto">
        <polygon points="0 0, 10 3.5, 0 7" fill="#333"/>
      </marker>
    </defs>
  </defs>
  
  <!-- Title -->
  <text x="400" y="25" class="title">QAL Taxonomy Migration Map — UTCS-MI v5.0</text>
  
  <!-- Legacy Aliases (left side) -->
  <rect x="50" y="80" width="120" height="30" class="old"/>
  <text x="110" y="100" class="label">TA (old)</text>
  <text x="110" y="125" class="desc">Top Assembly</text>
  
  <rect x="50" y="160" width="120" height="30" class="old"/>
  <text x="110" y="180" class="label">SA (old)</text>
  <text x="110" y="205" class="desc">Station Assembly</text>
  
  <rect x="50" y="240" width="120" height="30" class="old"/>
  <text x="110" y="260" class="label">CENV (old)</text>
  <text x="110" y="285" class="desc">Component Envelope</text>
  
  <rect x="50" y="320" width="120" height="30" class="old"/>
  <text x="110" y="340" class="label">DI-INV (old)</text>
  <text x="110" y="365" class="desc">Domain Invariant</text>
  
  <!-- Current Implementation (right side) -->
  <rect x="580" y="80" width="120" height="30" class="new"/>
  <text x="640" y="100" class="label">TFA (new)</text>
  <text x="640" y="125" class="desc">Top Figure Aircraft</text>
  
  <rect x="580" y="160" width="120" height="30" class="new"/>
  <text x="640" y="180" class="label">SE (new)</text>
  <text x="640" y="205" class="desc">Station Envelop</text>
  
  <rect x="580" y="240" width="120" height="30" class="new"/>
  <text x="640" y="260" class="label">CE (new)</text>
  <text x="640" y="285" class="desc">Component Equipped</text>
  
  <rect x="580" y="320" width="120" height="30" class="new"/>
  <text x="640" y="340" class="label">DINV (new)</text>
  <text x="640" y="365" class="desc">Domain Invariant</text>
  
  <!-- Migration Arrows -->
  <line x1="170" y1="95" x2="580" y2="95" class="arrow"/>
  <line x1="170" y1="175" x2="580" y2="175" class="arrow"/>
  <line x1="170" y1="255" x2="580" y2="255" class="arrow"/>
  <line x1="170" y1="335" x2="580" y2="335" class="arrow"/>
  
  <!-- Migration Policy -->
  <rect x="250" y="60" width="280" height="90" fill="#E3F2FD" stroke="#1976D2" stroke-width="1" rx="4"/>
  <text x="390" y="80" class="desc" style="font-weight: bold;">Migration Policy</text>
  <text x="390" y="100" class="desc">• Aliases active for 2 major releases</text>
  <text x="390" y="115" class="desc">• All changes registered as DET:ALIAS:*</text>
  <text x="390" y="130" class="desc">• QAUDIT cryptographic signatures</text>
  <text x="390" y="145" class="desc">• BWB-Q100 UTCS-MI v5.0 compliant</text>
</svg>