<svg viewBox="0 0 800 600" xmlns="http://www.w3.org/2000/svg">
  <defs>
    <style>
      .title { font: bold 18px sans-serif; text-anchor: middle; fill: #333; }
      .level { font: 14px sans-serif; text-anchor: middle; fill: #fff; }
      .desc { font: 10px sans-serif; text-anchor: middle; fill: #666; }
      .box { fill: #4CAF50; stroke: #2E7D32; stroke-width: 2; rx: 8; }
      .tfa { fill: #FF5722; stroke: #D84315; }
      .integration { fill: #2196F3; stroke: #1565C0; }
      .component { fill: #9C27B0; stroke: #6A1B9A; }
      .quantum { fill: #FFC107; stroke: #F57C00; }
    </style>
  </defs>
  
  <!-- Title -->
  <text x="400" y="30" class="title">QAL Taxonomía Extendida — BWB-Q100</text>
  
  <!-- TFA Level -->
  <rect x="300" y="60" width="200" height="40" class="box tfa"/>
  <text x="400" y="85" class="level">TFA · Top Figure Aircraft</text>
  
  <!-- Integration Level -->
  <rect x="50" y="140" width="120" height="35" class="box integration"/>
  <text x="110" y="162" class="level">SI · System Integration</text>
  
  <rect x="200" y="140" width="120" height="35" class="box integration"/>
  <text x="260" y="162" class="level">CV · Component Vendor</text>
  
  <rect x="350" y="140" width="120" height="35" class="box integration"/>
  <text x="410" y="162" class="level">SE · Station Envelop</text>
  
  <rect x="500" y="140" width="120" height="35" class="box integration"/>
  <text x="560" y="162" class="level">DI · Domain Interface</text>
  
  <!-- Component Level -->
  <rect x="100" y="220" width="120" height="35" class="box component"/>
  <text x="160" y="242" class="level">CE · Component Equipped</text>
  
  <rect x="250" y="220" width="120" height="35" class="box component"/>
  <text x="310" y="242" class="level">CC · Component Cell</text>
  
  <rect x="400" y="220" width="120" height="35" class="box component"/>
  <text x="460" y="242" class="level">CI · Component Item</text>
  
  <rect x="550" y="220" width="120" height="35" class="box component"/>
  <text x="610" y="242" class="level">CP · Component Part</text>
  
  <!-- Physical Level -->
  <rect x="200" y="300" width="120" height="35" class="box"/>
  <text x="260" y="322" class="level">FE · Fundamental Element</text>
  
  <!-- Quantum Level -->
  <rect x="400" y="300" width="120" height="35" class="box quantum"/>
  <text x="460" y="322" class="level">QS · Quantum State</text>
  
  <!-- Domain Examples -->
  <text x="100" y="380" class="desc">Dominios: AAA · CQH · ppp · DDD · EDI · EEE · EER</text>
  <text x="100" y="400" class="desc">IIF · IIS · LCC · LIB · MMM · OOO · AAP · CCC</text>
  
  <!-- UTCS-MI Reference -->
  <text x="400" y="440" class="desc">UTCS-MI v5.0 Compliant</text>
  <text x="400" y="460" class="desc">BWB-Q100 Program</text>
  
  <!-- Connection Lines -->
  <line x1="400" y1="100" x2="110" y2="140" stroke="#666" stroke-width="1"/>
  <line x1="400" y1="100" x2="260" y2="140" stroke="#666" stroke-width="1"/>
  <line x1="400" y1="100" x2="410" y2="140" stroke="#666" stroke-width="1"/>
  <line x1="400" y1="100" x2="560" y2="140" stroke="#666" stroke-width="1"/>
  
  <line x1="300" y1="180" x2="160" y2="220" stroke="#666" stroke-width="1"/>
  <line x1="300" y1="180" x2="310" y2="220" stroke="#666" stroke-width="1"/>
  <line x1="500" y1="180" x2="460" y2="220" stroke="#666" stroke-width="1"/>
  <line x1="500" y1="180" x2="610" y2="220" stroke="#666" stroke-width="1"/>
  
  <line x1="300" y1="260" x2="260" y2="300" stroke="#666" stroke-width="1"/>
  <line x1="500" y1="260" x2="460" y2="300" stroke="#666" stroke-width="1"/>
</svg>